<svg xmlns="http://www.w3.org/2000/svg" viewBox="0 0 512 512"><path d="M412.203 373.153a120.506 120.506 0 0 0-18.397-64.13l-6.595-10.587a120.506 120.506 0 0 1-18.397-64.13V121.492C368.814 59.184 318.308 8.678 256 8.678c-62.308 0-112.814 50.506-112.814 112.814v112.814a120.506 120.506 0 0 1-18.397 64.13l-6.595 10.587a120.506 120.506 0 0 0-18.397 64.13S134.509 433.899 256 433.899s156.203-60.746 156.203-60.746z" fill="#70432c"/><path d="M163.319 57.188a112.788 112.788 0 0 0-20.133 64.304v112.814a120.506 120.506 0 0 1-18.397 64.13l-6.595 10.587a120.506 120.506 0 0 0-18.397 64.13S134.509 433.899 256 433.899v-303.73c-67.254 0-88.168-37.141-92.681-72.981z" fill="#5c3724"/><path d="M393.025 367.165l-60.312-8.071-4.165 9.633c-17.226 40.066-63.67 58.585-103.736 41.359a79.001 79.001 0 0 1-41.359-41.359l-4.165-9.633-60.312 8.071c-25.852 3.436-45.177 25.47-45.212 51.547V512h364.475v-93.288c-.036-26.077-19.362-48.111-45.214-51.547z" fill="#787d82"/><path d="M256 416.542c31.57.017 60.112-18.796 72.548-47.816l4.165-9.633-9.546-1.302c-8.695-1.137-15.178-8.582-15.1-17.356v-36.708H203.932v37.228c.078 8.773-6.404 16.219-15.1 17.356l-9.546 1.302 4.165 9.633c12.593 28.821 41.1 47.401 72.549 47.296z" fill="#fedac6"/><path d="M309.109 346.338a15.967 15.967 0 0 1-1.041-5.727V303.73H203.932v37.228a15.963 15.963 0 0 1-1.041 5.727 117.494 117.494 0 0 0 106.218-.347z" fill="#f5c4b0"/><path d="M351.458 156.203h-8.678v52.068h8.678c14.379 0 26.034-11.655 26.034-26.034s-11.655-26.034-26.034-26.034zm-216.95 26.034c0 14.379 11.655 26.034 26.034 26.034h8.678v-52.068h-8.678c-14.379 0-26.034 11.655-26.034 26.034z" fill="#fedac6"/><path d="M264.678 225.627h-26.034a8.655 8.655 0 0 1-6.465-2.89 8.685 8.685 0 0 1-2.161-6.743l8.678-78.102 17.243 1.918-7.602 68.46h16.341v17.357z"/><path d="M342.78 112.814v91.726c0 25.157-6.838 49.846-19.786 71.42l-14.405 24.038A61.344 61.344 0 0 1 256 329.763a61.344 61.344 0 0 1-52.588-29.765l-14.405-24.038a138.786 138.786 0 0 1-19.786-71.42v-83.048s78.102-17.356 86.78-69.424c12.356 37.176 47.615 61.865 86.779 60.746z" fill="#fedac6"/><path d="M169.22 138.847h69.424v26.034c0 19.17-15.542 34.712-34.712 34.712s-34.712-15.542-34.712-34.712v-26.034zm104.136 0h69.424v26.034c0 19.17-15.542 34.712-34.712 34.712s-34.712-15.542-34.712-34.712v-26.034z" fill="#ebebeb"/><path d="M308.675 232.569a34.73 34.73 0 0 0-20.827-6.942h-63.696a34.736 34.736 0 0 0-20.827 6.942l-25.426 19.092a138.67 138.67 0 0 0 11.455 24.038l14.405 24.038c17.451 29.045 55.148 38.443 84.194 20.983a61.308 61.308 0 0 0 20.983-20.983l14.405-24.038a139.11 139.11 0 0 0 10.761-24.038l-25.427-19.092z" fill="#70432c"/><path d="M108.475 369.768c-20.749 7.333-34.651 26.928-34.712 48.944V512h34.712V369.768z" fill="#717478"/><path d="M218.164 226.235a33.803 33.803 0 0 0-14.839 6.335l-25.426 19.092a138.67 138.67 0 0 0 11.455 24.038l14.405 24.038a60.851 60.851 0 0 0 17.356 18.397 161.205 161.205 0 0 1-2.951-91.9z" fill="#5c3724"/><path d="M82.441 512H65.085v-93.288c.174-30.468 23.066-56.225 53.248-59.982l69.337-9.363a8.687 8.687 0 0 0 7.585-8.678V303.73h17.356v36.881c.113 13.069-9.624 24.264-22.658 25.956l-69.389 9.372c-21.652 2.699-38.001 21.096-38.131 42.826V512h.008zm364.474 0h-17.356v-93.288c-.13-21.678-16.479-40.075-38.036-42.765l-69.519-9.381c-12.991-1.692-22.728-12.887-22.615-26.034v-36.803h17.356v36.881c-.043 4.46 3.202 8.183 7.55 8.756l69.458 9.372c30.095 3.749 52.979 29.505 53.161 59.921V512zm-95.457-295.051h-8.678v-17.356h8.678c9.572 0 17.356-7.784 17.356-17.356s-7.784-17.356-17.356-17.356h-8.678v-17.356h8.678c19.144 0 34.712 15.568 34.712 34.712s-15.569 34.712-34.712 34.712zm-182.238 0h-8.678c-19.144 0-34.712-15.568-34.712-34.712s15.568-34.712 34.712-34.712h8.678v17.356h-8.678c-9.572 0-17.356 7.784-17.356 17.356s7.784 17.356 17.356 17.356h8.678v17.356z"/><path d="M256.043 425.22h-.095a87.437 87.437 0 0 1-80.471-53.074l-5.554-12.921 15.95-6.847 5.554 12.93a70.128 70.128 0 0 0 64.529 42.557h.078a70.162 70.162 0 0 0 64.547-42.557l5.554-12.93 15.95 6.847-5.554 12.93a87.482 87.482 0 0 1-80.488 53.065zm8.635-199.593h-26.034a8.655 8.655 0 0 1-6.465-2.89 8.685 8.685 0 0 1-2.161-6.743l8.678-78.102 17.243 1.918-7.602 68.46h16.341v17.357z"/><path d="M256 338.441c-24.446 0-47.442-13.017-60.025-33.974L181.56 280.42a147.613 147.613 0 0 1-21.018-75.88v-83.048a8.69 8.69 0 0 1 6.786-8.47c.72-.165 72.504-16.748 80.106-62.377a8.689 8.689 0 0 1 7.888-7.229c3.844-.33 7.645 2.126 8.912 5.918 11.238 33.809 42.609 55.695 78.293 54.81 2.334-.182 4.608.816 6.3 2.447a8.66 8.66 0 0 1 2.629 6.222v91.726c0 26.728-7.272 52.97-21.027 75.889l-14.405 24.038c-12.573 20.958-35.578 33.975-60.024 33.975zm-78.102-210.25v76.34c0 23.578 6.422 46.731 18.545 66.951l14.414 24.047c9.459 15.768 26.754 25.557 45.143 25.557 18.38 0 35.684-9.789 45.143-25.548l14.405-24.038a130.22 130.22 0 0 0 18.553-66.959v-83.187c-32.178-1.953-60.702-19.43-77.078-46.462-18.483 33.114-62.159 48.448-79.125 53.299z"/><path d="M203.932 208.271c-23.925 0-43.39-19.465-43.39-43.39v-26.034c0-4.79 3.888-8.678 8.678-8.678h69.424c4.79 0 8.678 3.888 8.678 8.678v26.034c0 23.926-19.465 43.39-43.39 43.39zm-26.034-60.746v17.356c0 14.353 11.681 26.034 26.034 26.034s26.034-11.681 26.034-26.034v-17.356h-52.068zm130.17 60.746c-23.925 0-43.39-19.465-43.39-43.39v-26.034a8.676 8.676 0 0 1 8.678-8.678h69.424a8.676 8.676 0 0 1 8.678 8.678v26.034c0 23.926-19.465 43.39-43.39 43.39zm-26.034-60.746v17.356c0 14.353 11.681 26.034 26.034 26.034s26.034-11.681 26.034-26.034v-17.356h-52.068z"/><path d="M238.644 130.169h34.712v17.356h-34.712z"/><path d="M377.492 164.881h-17.356v-43.39c0-57.422-46.713-104.136-104.136-104.136S151.864 64.069 151.864 121.492v43.39h-17.356v-43.39C134.508 54.498 189.006 0 256 0s121.492 54.498 121.492 121.492v43.389zM91.119 373.161a129.057 129.057 0 0 1 19.725-68.747l6.578-10.57a111.657 111.657 0 0 0 17.087-59.531v-34.721h17.356v34.712a129.05 129.05 0 0 1-19.725 68.738l-6.578 10.57a111.657 111.657 0 0 0-17.087 59.531l-17.356.018zm329.762 0l-17.356-.017a111.653 111.653 0 0 0-17.078-59.505l-6.604-10.622a129.06 129.06 0 0 1-19.708-68.721v-34.703h17.356v34.712a111.663 111.663 0 0 0 17.078 59.514l6.604 10.622a129.036 129.036 0 0 1 19.708 68.72zM183.114 258.603l-10.422-13.885 25.426-19.092c7.472-5.597 16.714-8.678 26.034-8.678h63.696c9.329 0 18.58 3.081 26.034 8.678l25.435 19.1-10.422 13.885-25.426-19.092a26.174 26.174 0 0 0-15.62-5.207h-63.696a26.185 26.185 0 0 0-15.62 5.207l-25.419 19.084z"/><path d="M229.966 251.661h52.068v17.356h-52.068z"/></svg>