<svg xmlns="http://www.w3.org/2000/svg" viewBox="0 0 512.002 512.002"><path d="M358.403 145.063v119.469a79.52 79.52 0 0 1-6.827 32.342c-16.581 37.36-53.59 61.467-94.466 61.526-37.539-.009-72.125-20.352-90.37-53.164l-3.157-5.632a79.124 79.124 0 0 1-9.984-38.571v-115.97l59.734-68.268h85.335l59.735 68.268z" fill="#fedac6"/><path d="M181.589 113.062l-27.99 32.001v115.97a79.124 79.124 0 0 0 9.984 38.571l3.157 5.632a101.786 101.786 0 0 0 27.222 31.403c-6.229-55.04-23.296-123.308-12.373-223.577z" fill="#f5c4b0"/><path d="M358.403 145.063h-8.533v51.201h8.533c14.14 0 25.6-11.46 25.6-25.6s-11.46-25.601-25.6-25.601z" fill="#fedac6"/><path d="M127.999 170.663c0 14.14 11.46 25.6 25.6 25.6h8.533v-51.201h-8.533c-14.139.001-25.6 11.47-25.6 25.601z" fill="#f5c4b0"/><path d="M256.001 415.915c31.045.017 59.111-18.483 71.34-47.019l2.901-6.741-19.627-2.304a34.817 34.817 0 0 1-20.48-9.984h-68.268a34.814 34.814 0 0 1-20.48 9.984l-19.627 2.304 2.901 6.741c12.229 28.544 40.287 47.036 71.34 47.019z" fill="#fedac6"/><path d="M375.982 367.531l-45.739-5.376-2.901 6.741c-16.939 39.399-62.61 57.609-102.009 40.671a77.69 77.69 0 0 1-40.671-40.671l-2.901-6.741-45.739 5.376c-33.903 4.531-59.222 33.46-59.222 67.67v76.801h358.406v-76.801c-.002-34.202-25.321-63.131-59.224-67.67z" fill="#215280"/><g fill="#70432c"><path d="M325.634 76.795H189.099a35.24 35.24 0 0 1-15.787-3.755c-17.366-8.789-24.32-29.995-15.531-47.361a35.313 35.313 0 0 1 6.144-8.619l8.107-8.533 8.533 17.067h108.119c26.539 0 52.652 26.027 44.118 51.201h-7.168z"/><path d="M332.802 76.795c17.861 5.828 29.381 23.177 27.819 41.899l-2.219 26.368-59.734-68.268 34.134.001z"/></g><path d="M213.334 76.795L153.6 145.063l-2.219-26.368c-1.536-18.774 13.056-34.134 27.819-41.899l34.134-.001z" fill="#5c3724"/><path d="M324.269 258.729c-2.517 3.985-7.791 5.171-11.776 2.645a8.556 8.556 0 0 1-3.413-4.181l-6.059-15.787c-2.534-6.69-8.977-11.076-16.128-11.008H225.11a17.065 17.065 0 0 0-15.958 11.008l-6.059 15.787a8.535 8.535 0 0 1-15.189 1.536l-34.134-56.833v59.137a79.124 79.124 0 0 0 9.984 38.571l3.157 5.632c27.862 49.861 90.873 67.696 140.734 39.834a103.438 103.438 0 0 0 44.101-48.368 79.38 79.38 0 0 0 6.656-32.171V205.65l-34.133 53.079z" fill="#70432c"/><path d="M153.599 201.896v59.137a79.124 79.124 0 0 0 9.984 38.571l3.157 5.632a102.402 102.402 0 0 0 28.16 32.257 398.781 398.781 0 0 1-9.728-83.287l-31.573-52.31zm4.865-178.35c-9.899 16.811-4.292 38.469 12.527 48.368a35.296 35.296 0 0 0 17.852 4.881h92.759C204.8 68.262 167.424 42.661 158.464 23.546z" fill="#5c3724"/><path fill="#fedac6" d="M110.932 469.335h34.134v42.667h-34.134z"/><path fill="#f5c4b0" d="M76.798 469.335h34.134v42.667H76.798z"/><path fill="#fedac6" d="M366.936 469.335h68.268v42.667h-68.268z"/><path d="M290.135 349.866h-68.268a34.814 34.814 0 0 1-20.48 9.984l-19.627 2.304 2.901 6.741a77.57 77.57 0 0 0 25.6 32.171c22.443-3.243 64.086-11.008 96.599-42.667a149.441 149.441 0 0 1-16.725-8.533z" fill="#f5c4b0"/><path d="M110.932 381.013c-20.438 7.228-34.108 26.539-34.134 48.214v40.107h34.134v-88.321z" fill="#1c496e"/><circle cx="204.8" cy="170.663" r="17.067"/><circle cx="307.202" cy="170.663" r="17.067"/><path d="M256.001 238.931h-8.533a8.54 8.54 0 0 1-6.4-2.884 8.551 8.551 0 0 1-2.074-6.707l8.533-68.268 16.93 2.116L256 230.935v7.996zm102.402-34.134h-8.533V187.73h8.533c9.412 0 17.067-7.655 17.067-17.067s-7.655-17.067-17.067-17.067h-8.533v-17.067h8.533c18.825 0 34.134 15.309 34.134 34.134s-15.309 34.134-34.134 34.134zm-196.27 0H153.6c-18.825 0-34.134-15.309-34.134-34.134s15.309-34.134 34.134-34.134h8.533v17.067H153.6c-9.412 0-17.067 7.655-17.067 17.067s7.655 17.067 17.067 17.067h8.533v17.067z"/><path d="M257.119 366.933c-40.619-.009-78.107-22.059-97.836-57.55l-3.14-5.598a87.994 87.994 0 0 1-11.076-42.761V136.529h17.067v124.503a70.97 70.97 0 0 0 8.909 34.433l3.14 5.589c16.743 30.106 48.513 48.803 82.928 48.811 37.445-.051 71.468-22.221 86.666-56.449a70.385 70.385 0 0 0 6.093-28.869V136.529h17.067v128.002c.017 12.399-2.526 24.448-7.561 35.798-17.938 40.406-58.071 66.545-102.257 66.604z"/><path d="M256.001 281.556c-9.592 0-19.183-1.527-28.306-4.574l5.41-16.179c14.763 4.932 31.028 4.932 45.799 0l5.402 16.179a89.529 89.529 0 0 1-28.305 4.574z"/><path d="M316.879 271.247c-2.381 0-4.77-.503-6.997-1.51a16.988 16.988 0 0 1-8.96-9.523l-6.042-15.744a8.579 8.579 0 0 0-7.996-5.53h-61.782c-3.823-.196-6.887 2.167-8.149 5.504l-6.076 15.813c-1.28 3.396-3.712 6.375-6.827 8.346-3.84 2.432-8.414 3.209-12.86 2.236a16.989 16.989 0 0 1-10.684-7.527l-34.134-53.94 14.422-9.122 34.134 53.932 6.067-15.821c3.772-9.959 13.184-16.691 24.175-16.487h61.697c10.564 0 20.182 6.639 23.936 16.512l6.05 15.753 34.322-53.914 14.405 9.156-34.305 53.94a17.23 17.23 0 0 1-8.354 6.81 16.839 16.839 0 0 1-6.042 1.116zm15.923-185.918H189.099a44.04 44.04 0 0 1-19.618-4.659c-21.556-10.914-30.217-37.308-19.311-58.838a43.633 43.633 0 0 1 7.629-10.71l8.047-8.474c1.92-2.014 4.693-2.953 7.45-2.56a8.536 8.536 0 0 1 6.375 4.625l6.178 12.348h102.837c17.246 0 35.107 9.37 45.501 23.86 8.67 12.083 11.042 25.797 6.699 38.605a8.531 8.531 0 0 1-8.084 5.803zM169.839 23.23a26.915 26.915 0 0 0-4.446 6.306c-6.656 13.142-1.374 29.244 11.768 35.9a26.888 26.888 0 0 0 11.947 2.833h136.757c.469-7.569-3.055-13.91-5.547-17.391-7.185-10.01-19.892-16.743-31.634-16.743H180.565a8.541 8.541 0 0 1-7.637-4.719l-3.089-6.186z"/><path d="M358.403 153.596a8.564 8.564 0 0 1-6.426-2.91l-59.734-68.268 12.851-11.239 46.49 53.138.538-6.332c1.34-15.352-7.808-29.756-22.255-35.047l5.88-16.026c21.667 7.945 35.388 29.551 33.374 52.541l-2.219 26.334a8.522 8.522 0 0 1-5.837 7.39 8.63 8.63 0 0 1-2.662.419zm-204.804 0a8.542 8.542 0 0 1-8.507-7.817l-2.219-26.368c-1.826-21.103 9.267-40.841 28.263-50.262l7.586 15.292c-12.664 6.281-20.062 19.439-18.842 33.519l.538 6.357 46.49-53.138 12.843 11.239-59.734 68.268a8.516 8.516 0 0 1-6.418 2.91zM85.332 512.002H68.265v-76.801c0-38.315 28.638-71.041 66.629-76.127l65.503-7.697a26.341 26.341 0 0 0 15.429-7.535l12.092 12.049a43.496 43.496 0 0 1-25.507 12.433l-65.392 7.68c-29.415 3.942-51.696 29.389-51.687 59.197v76.801z"/><path d="M256.044 424.457h-.094a85.979 85.979 0 0 1-79.131-52.191l-5.461-12.706 15.685-6.733 5.461 12.715a68.96 68.96 0 0 0 63.455 41.848h.077a68.972 68.972 0 0 0 63.463-41.848l5.461-12.715 15.685 6.733-5.461 12.715a86.029 86.029 0 0 1-79.14 52.182zm-102.445 87.545h-17.067v-34.134H76.798v-17.067h68.268a8.53 8.53 0 0 1 8.533 8.533v42.668z"/><path d="M443.738 512.002h-17.067v-76.801c0-29.807-22.272-55.263-51.824-59.205l-65.23-7.663a43.55 43.55 0 0 1-25.524-12.433l12.083-12.049a26.406 26.406 0 0 0 15.463 7.535l65.341 7.68c38.111 5.086 66.757 37.82 66.757 76.136v76.8z"/><path d="M375.47 512.002h-17.067v-42.667a8.525 8.525 0 0 1 8.533-8.533h68.268v17.067H375.47v34.133z"/></svg>