<svg xmlns="http://www.w3.org/2000/svg" viewBox="0 0 511.996 511.996"><path d="M307.12 329.557c59.643-19.001 93.725-76.684 93.725-76.684a57.43 57.43 0 0 1-25.561-47.714v-77.365c0-56.26-39.305-104.869-94.321-116.644a120.262 120.262 0 0 0-49.93 0c-55.016 11.775-94.321 60.384-94.321 116.644v77.365a57.43 57.43 0 0 1-25.561 47.714s25.561 68.163 93.725 76.684H307.12z" fill="#dbdbdb"/><path d="M237.083 10.212c-2.045 0-4.09.511-6.049.937-55.016 11.775-94.321 60.384-94.321 116.644v77.365a57.43 57.43 0 0 1-25.561 47.714s25.561 68.163 93.725 76.684h37.405a704.297 704.297 0 0 1-5.199-319.344z" fill="#bfbfbf"/><path d="M375.795 349.92l-61.773-8.52-58.024 33.485-58.024-33.144-61.773 8.52c-33.724 4.507-58.961 33.195-59.132 67.226v93.725h357.857v-93.725c.009-34.149-25.271-63.034-59.131-67.567z" fill="#dbdbdb"/><path fill="#fedac6" d="M314.022 341.741l-6.902-.937v-59.643H204.875v59.643l-6.901.937 58.024 33.144z"/><path d="M204.875 408.967l51.123-34.082-51.123-34.081h-17.04zm51.123-34.082l51.122 34.082 17.041-68.163H307.12z" fill="#eaeaea"/><path fill="#2e6aa3" d="M230.437 511.212l8.52-93.725-8.52-25.561 25.561-17.041 25.561 17.041-8.52 25.561 8.52 93.725"/><path d="M77.069 417.487v93.725h34.082V358.526a68.183 68.183 0 0 0-34.082 58.961z" fill="#bfbfbf"/><path d="M204.875 281.161v34.082l7.498 7.498a61.69 61.69 0 0 0 43.624 18.063 61.692 61.692 0 0 0 43.624-18.063l7.498-7.498v-34.082H204.875z" fill="#f5c4b0"/><g fill="#fedac6"><path d="M349.722 104.618v120.564a51.105 51.105 0 0 1-12.61 34.082l-36.808 41.665a34.068 34.068 0 0 1-25.561 11.588h-37.319a34.068 34.068 0 0 1-25.561-11.588l-36.808-42.091a51.105 51.105 0 0 1-12.61-34.082V104.618c.009-14.118 11.451-25.561 25.57-25.553 1.542 0 3.076.136 4.592.418l14.826 2.641a271.553 271.553 0 0 0 97.473 0l14.826-2.641c13.905-2.445 27.155 6.842 29.608 20.747.255 1.448.382 2.922.382 4.388z"/><path d="M349.722 142.108h-8.52v51.122h8.52c14.118 0 25.561-11.443 25.561-25.561s-11.442-25.561-25.561-25.561zm-213.01 25.561c0 14.118 11.443 25.561 25.561 25.561h8.52v-51.122h-8.52c-14.118 0-25.561 11.451-25.561 25.561z"/></g><path d="M315.641 244.353H196.355v-8.52c0-18.822 15.26-34.082 34.082-34.082h51.122c18.822 0 34.082 15.26 34.082 34.082v8.52z" fill="#dbdbdb"/><path d="M196.355 80.164l-3.919-.682c-13.888-2.539-27.206 6.654-29.745 20.543a25.174 25.174 0 0 0-.417 4.592v120.564a51.105 51.105 0 0 0 12.61 34.082l21.471 24.028V80.164z" fill="#f5c4b0"/><path d="M349.722 201.759h-8.52v-17.041h8.52c9.398 0 17.041-7.643 17.041-17.041s-7.643-17.041-17.041-17.041h-8.52v-17.041h8.52c18.796 0 34.082 15.286 34.082 34.082s-15.286 34.082-34.082 34.082zm-178.928 0h-8.52c-18.796 0-34.082-15.286-34.082-34.082s15.286-34.082 34.082-34.082h8.52v17.041h-8.52c-9.398 0-17.041 7.643-17.041 17.041s7.643 17.041 17.041 17.041h8.52v17.041zm93.724 8.52h-25.561c-2.445 0-4.771-1.048-6.39-2.88s-2.369-4.269-2.07-6.697l8.52-68.163 16.904 2.113-7.319 58.586h15.908v17.041h.008z"/><path d="M274.76 321.045h-37.336a42.617 42.617 0 0 1-31.96-14.485l-36.817-42.099a59.61 59.61 0 0 1-14.715-39.765V104.618c0-9.108 3.553-17.663 9.986-24.096 6.433-6.433 14.987-9.969 24.087-9.969h.017c2.053 0 4.107.179 6.135.554l14.774 2.633c31.364 5.709 63.128 5.726 94.449 0l14.86-2.65c18.574-3.289 36.229 9.142 39.492 27.649.341 1.96.52 3.919.52 5.871v120.564c.136 14.536-5.095 28.663-14.723 39.68l-36.834 41.707a42.622 42.622 0 0 1-31.935 14.484zM188.005 87.594a16.94 16.94 0 0 0-12.048 4.984 16.909 16.909 0 0 0-4.993 12.048v120.138c-.094 10.523 3.638 20.611 10.506 28.484l36.8 42.082a25.544 25.544 0 0 0 19.162 8.682h37.311a25.57 25.57 0 0 0 19.162-8.699l36.817-41.682a42.491 42.491 0 0 0 10.472-28.364V104.618c0-.988-.094-1.968-.256-2.94-1.627-9.219-10.48-15.422-19.725-13.803l-14.808 2.641c-33.323 6.075-67.141 6.067-100.507 0l-14.783-2.641a16.887 16.887 0 0 0-3.11-.281c.009 0 0 0 0 0z"/><circle cx="204.918" cy="150.637" r="17.041"/><circle cx="298.643" cy="150.637" r="17.041"/><path d="M315.641 252.882H196.355a8.523 8.523 0 0 1-8.52-8.52v-8.52c0-23.491 19.111-42.602 42.602-42.602h51.122c23.491 0 42.602 19.111 42.602 42.602v8.52a8.518 8.518 0 0 1-8.52 8.52zm-110.766-17.041H307.12c0-14.093-11.468-25.561-25.561-25.561h-51.122c-14.093-.001-25.562 11.459-25.562 25.561zM239 269.922h34.082v17.041H239zm-93.767-85.204h-17.041v-56.916c0-59.881 42.5-112.444 101.052-124.977 17.757-3.766 35.743-3.766 53.483 0 58.569 12.534 101.069 65.096 101.069 124.977v48.396h-17.041v-48.396c0-51.898-36.834-97.456-87.581-108.311-15.379-3.272-30.98-3.263-46.377 0-50.739 10.855-87.564 56.414-87.564 108.311v56.916z"/><path d="M247.52 39.871h17.041v51.122H247.52zm-34.082 8.521h17.041v34.082h-17.041zm68.164 0h17.041v34.082h-17.041zm28.109 289.293l-5.172-16.24c44.391-14.144 74.332-51.685 84.829-66.638-14.272-12.423-22.579-30.435-22.596-49.631v-28.978h17.041v28.969a48.813 48.813 0 0 0 21.77 40.625 8.534 8.534 0 0 1 2.616 11.426c-1.475 2.463-36.468 60.691-98.488 80.467z"/><path d="M370.205 291.326a94.893 94.893 0 0 1-32.752-44.076l16.027-5.785a77.96 77.96 0 0 0 26.89 36.186l-10.165 13.675zm-25.689 27.947a88.408 88.408 0 0 1-28.279-37.72l15.856-6.22a71.317 71.317 0 0 0 22.843 30.443l-10.42 13.497zm-140.697 18.744c-72.441-9.057-99.527-79.163-100.652-82.145a8.534 8.534 0 0 1 3.246-10.088 48.82 48.82 0 0 0 21.77-40.634v-28.952h17.041v28.969c-.017 19.631-8.699 38.001-23.533 50.441 7.728 15.788 33.366 59.149 84.233 65.505l-2.105 16.904z"/><path d="M141.799 291.326l-10.165-13.675a77.912 77.912 0 0 0 26.89-36.186l16.027 5.785c-6.373 17.645-17.697 32.888-32.752 44.076zm25.68 27.947l-10.412-13.496a71.272 71.272 0 0 0 22.835-30.435l15.865 6.211a88.368 88.368 0 0 1-28.288 37.72z"/><path d="M85.59 511.22H68.549v-93.725c0-38.265 28.594-70.941 66.527-76.019l61.279-8.128V289.69h17.041v51.122a8.52 8.52 0 0 1-7.404 8.444l-68.675 9.108c-29.489 3.945-51.736 29.361-51.727 59.123v93.733zm357.857 0h-17.041v-93.725c0-29.762-22.238-55.187-51.744-59.123l-68.666-9.108c-4.235-.554-7.396-4.175-7.396-8.444v-51.122h17.041v43.659l61.27 8.128c37.933 5.07 66.536 37.754 66.536 76.019v93.716z"/><path d="M136.755 443.057h17.041v68.163h-17.041zm221.53 0h17.041v68.163h-17.041zm-153.41-25.561a8.541 8.541 0 0 1-3.076-.571 8.523 8.523 0 0 1-5.189-5.879l-17.041-68.163 16.53-4.124 14.11 56.431 41.06-27.376 9.449 14.178-51.122 34.082a8.535 8.535 0 0 1-4.721 1.422z"/><path d="M255.998 383.414a8.508 8.508 0 0 1-4.226-1.125l-59.643-34.082 8.452-14.791 55.417 31.67 55.417-31.67 8.452 14.791-59.643 34.082a8.464 8.464 0 0 1-4.226 1.125z"/><path d="M307.12 417.496a8.56 8.56 0 0 1-4.729-1.431l-51.122-34.082 9.449-14.178 41.06 27.376 14.11-56.431 16.521 4.124-17.041 68.163a8.505 8.505 0 0 1-5.189 5.879c-.98.384-2.019.58-3.059.58zm-68.197 94.5l-16.973-1.551 8.359-91.944-7.958-23.874 16.163-5.393 8.52 25.561a8.558 8.558 0 0 1 .4 3.468l-8.511 93.733z"/><path d="M273.073 511.996l-8.52-93.725a8.545 8.545 0 0 1 .409-3.468l8.52-25.561 16.155 5.393-7.958 23.874 8.359 91.944-16.965 1.543z"/><path d="M239 408.975h34.082v17.041H239z"/></svg>