<svg xmlns="http://www.w3.org/2000/svg" viewBox="0 0 511.988 511.988"><path d="M375.421 153.606l1.707-10.41a137.262 137.262 0 0 0-10.24-78.588c-10.487-23.628-33.876-38.902-59.73-38.995l-25.599-10.154a65.62 65.62 0 0 0-53.757-2.219c-59.688 23.133-97.497 82.283-93.435 146.169a149.515 149.515 0 0 1-13.141 70.482c-16.972 37.272-12.74 80.781 11.093 114.085l4.181 5.888s34.132 42.665 127.994 42.665 120.57-65.277 120.57-65.277a100.847 100.847 0 0 0 1.792-75.004 177.48 177.48 0 0 1-11.434-62.888v-1.621" fill="#fecb66"/><path d="M240.259 74.762a245.587 245.587 0 0 1-103.76 49.491 150.235 150.235 0 0 0-1.963 35.156 149.515 149.515 0 0 1-13.141 70.482c-16.972 37.272-12.74 80.781 11.093 114.085l4.01 5.888s30.889 38.398 114.426 42.665c-22.696-162.98-17.235-265.972-10.665-317.767z" fill="#f5ad76"/><path d="M401.019 366.929l2.048-2.048a49.119 49.119 0 0 0-12.799-3.584l-76.796-9.557c-8.584-1.084-15.001-8.413-14.933-17.066V281.6h-85.244v53.16c.068 8.652-6.348 15.982-14.933 17.066l-76.796 9.557a49.108 49.108 0 0 0-12.799 3.584l2.133 1.963c79.834 80.115 209.5 80.337 289.615.503.163-.171.334-.342.504-.504z" fill="#fedac6"/><path d="M403.067 364.881l-2.048 2.048c-79.834 80.115-209.5 80.337-289.615.503l-.503-.503-2.048-2.048c-19.31 7.773-31.99 26.461-32.084 47.272v99.835h358.382v-99.835c-.094-20.82-12.774-39.507-32.084-47.272z" fill="#f288b7"/><path d="M298.624 320.339V281.6h-85.329v38.739c31.999 16.639 53.331 16.639 85.329 0z" fill="#f5c4b0"/><path d="M358.355 145.073h-8.533v51.197h8.533c14.139 0 25.599-11.46 25.599-25.599s-11.469-25.598-25.599-25.598zm-8.533 0c-34.132-17.066-42.665-76.796-42.665-76.796l-25.599 8.533s-8.533-34.132-34.132-25.599c-33.364 11.093-8.533 51.197-42.665 76.796a261.25 261.25 0 0 1-42.665 25.599l4.693 59.73c2.099 47.725 41.402 85.329 89.169 85.329 47.767 0 87.07-37.605 89.169-85.329l4.695-68.263z" fill="#fedac6"/><path d="M196.23 170.672V136.54a142.785 142.785 0 0 1-34.132 17.066l4.693 59.73c1.826 40.181 30.3 74.185 69.543 83.025l-11.263-21.076c-28.841-36.35-28.841-64.764-28.841-104.613z" fill="#f5c4b0"/><path d="M76.769 408.911v103.077h34.132V358.396c-25.599 8.533-34.132 25.599-34.132 50.515z" fill="#ed7bb2"/><circle cx="307.149" cy="162.113" r="17.066"/><path d="M261.788 212.893l-25.599-8.533a8.503 8.503 0 0 1-5.179-4.83 8.555 8.555 0 0 1 .247-7.082l17.066-34.132 15.265 7.637-12.663 25.334 16.264 5.418-5.401 16.188zM85.293 511.988H68.227V403.62c-.23-30.249 22.279-55.925 52.366-59.662l76.796-9.557c4.275-.538 7.483-4.207 7.458-8.533v-35.736h17.066V325.8c.102 12.919-9.531 23.926-22.399 25.53l-76.805 9.557c-21.494 2.671-37.57 21.017-37.408 42.665v108.436h-.008zm358.468 0h-17.066V404.047c.171-21.716-15.914-40.053-37.4-42.733l-76.796-9.557c-12.885-1.604-22.518-12.62-22.416-25.599v-36.026h17.066v36.086c-.034 4.394 3.174 8.064 7.458 8.601l76.788 9.557c30.087 3.737 52.597 29.421 52.366 59.73v107.882zm-85.415-307.184h-8.533v-17.066h8.533c9.412 0 17.066-7.654 17.066-17.066s-7.654-17.066-17.066-17.066h-8.533V136.54h8.533c18.824 0 34.132 15.308 34.132 34.132s-15.308 34.132-34.132 34.132zm-112.941 42.664h-6.511v-17.066h6.511a72.615 72.615 0 0 0 32.34-7.637l7.637 15.265c-12.356 6.17-26.18 9.438-39.977 9.438z"/><circle cx="204.754" cy="162.113" r="17.066"/><path d="M255.951 307.198c-52.469 0-95.381-41.06-97.693-93.487l-4.676-59.432a8.558 8.558 0 0 1 2.244-6.459 8.543 8.543 0 0 1 5.376-2.696c1.169-.282 10.623-3.08 38.432-23.935 14.079-10.555 16.093-23.79 18.226-37.792 2.355-15.479 5.034-33.022 26.862-40.275 8.627-2.867 17.049-2.287 24.336 1.715 9.173 5.034 14.702 14.31 17.723 21.238l17.663-5.888a8.572 8.572 0 0 1 7.185.836 8.551 8.551 0 0 1 3.968 6.041c.077.555 8.345 55.532 38.031 70.379a8.557 8.557 0 0 1 4.702 8.217l-4.693 68.263c-2.296 52.207-45.208 93.275-97.686 93.275zm-84.825-147.593l4.173 53.058c1.92 43.569 37.34 77.47 80.662 77.47s78.742-33.901 80.645-77.172l4.335-63.143c-25.385-16.358-36.359-52.682-40.327-70.362l-16.358 5.453a8.576 8.576 0 0 1-6.809-.614 8.513 8.513 0 0 1-4.164-5.41c-1.024-3.968-5.256-15.18-12.458-19.105-3.14-1.707-6.545-1.86-10.692-.469-11.417 3.797-13.047 11.332-15.385 26.665-2.312 15.206-5.197 34.123-24.856 48.868-16.504 12.354-29.781 20.819-38.766 24.761z"/><path d="M129.536 354.795l-4.181-5.888c-25.513-35.651-30.078-82.616-11.903-122.55 9.42-20.735 13.704-43.714 12.39-66.446-4.249-68.024 35.668-130.178 99.323-154.633 19.549-7.833 41.7-6.92 60.626 2.551l23.073 9.275c28.5.751 54.21 17.894 65.814 44.038 11.69 26.239 15.359 55.106 10.598 83.46l-1.416 10.171-16.895-2.347 1.451-10.41c4.241-25.274.998-50.762-9.326-73.938-9.122-20.539-29.515-33.85-51.974-33.935a8.352 8.352 0 0 1-3.157-.623l-25.172-10.154c-15.214-7.577-32.263-8.285-47.392-2.21-56.778 21.81-92.309 77.137-88.52 137.721 1.476 25.53-3.328 51.291-13.883 74.543-15.658 34.396-11.733 74.851 10.265 105.586l4.198 5.922-13.919 9.867zm253.726-1.587l-15.701-6.698 9.642-22.612c9.412-21.938 9.992-46.317 1.647-68.664-7.97-21.119-11.997-43.287-11.972-65.883v-1.613h17.066v1.621c-.026 20.53 3.644 40.676 10.879 59.875 9.898 26.503 9.207 55.396-1.937 81.378l-9.624 22.596z"/><path d="M255.772 427c-54.73 0-109.375-20.889-150.922-62.58l12.091-12.048c76.387 76.66 200.899 76.873 277.55.486l12.56 11.571C365.164 406.163 310.426 427 255.772 427zm-7.321-337.587a55.063 55.063 0 0 0-22.168-22.168l8.14-15.001a72.082 72.082 0 0 1 29.029 29.029l-15.001 8.14z"/></svg>