<svg xmlns="http://www.w3.org/2000/svg" viewBox="0 0 512 512"><path d="M358.357 349.867c17.067-51.2 17.067-196.267 17.067-196.267 0-102.4-34.133-145.067-119.467-145.067-45.397 0-93.269 13.995-110.933 68.267-17.067 51.2-25.6 179.2 17.067 273.067 19.533 32.99 55.561 52.634 93.867 51.2 40.294 0 78.224-18.97 102.399-51.2z" fill="#a15d30"/><path d="M196.224 19.712a90.97 90.97 0 0 0-51.2 57.088c-17.067 51.2-25.6 179.2 17.067 273.067 19.115 32.23 54.016 51.763 91.477 51.2-52.736-95.147-57.344-305.238-57.344-381.355z" fill="#8f4f24"/><path fill="#fedac6" d="M110.891 443.733h34.133V512h-34.133z"/><path fill="#f5c4b0" d="M76.757 443.733h34.133V512H76.757z"/><path fill="#fedac6" d="M366.891 443.733h68.267V512h-68.267z"/><path d="M435.157 403.627c.196-25.984-19.098-48-44.885-51.2l-59.221-7.424-3.755 8.533c-16.939 39.398-62.609 57.609-102.007 40.67a77.69 77.69 0 0 1-40.67-40.67l-3.755-8.533-59.221 7.424c-25.788 3.2-45.082 25.216-44.885 51.2v40.107h68.267l-1.792 3.584a144.39 144.39 0 0 0-15.275 64.683h256a144.368 144.368 0 0 0-15.275-64.683l-1.792-3.584h68.267v-40.107z" fill="#f288b7"/><path d="M110.891 355.413c-20.437 7.228-34.108 26.539-34.133 48.213v40.107h34.133v-88.32z" fill="#ed7bb2"/><path d="M255.957 401.067c31.044.017 59.11-18.483 71.339-47.019l3.755-8.533-17.067-2.133c-8.585-1.084-15.002-8.414-14.933-17.067V281.6h-85.76v44.629c.068 8.653-6.349 15.983-14.933 17.067l-17.493 2.133 3.755 8.533c12.201 28.57 40.276 47.105 71.337 47.105z" fill="#fedac6"/><path d="M298.624 328.875V281.6h-85.333v47.275c32 16.64 53.333 16.64 85.333 0z" fill="#f5c4b0"/><g fill="#fedac6"><path d="M358.357 145.067H341.29v51.2h17.067c14.14 0 25.6-11.46 25.6-25.6s-11.46-25.6-25.6-25.6z"/><path d="M349.824 145.067c-110.933-25.6-153.6-68.267-153.6-68.267l-34.133 76.8 4.693 59.733c2.099 47.727 41.404 85.333 89.173 85.333 47.77 0 87.074-37.606 89.173-85.333l4.694-68.266z"/></g><path d="M196.224 76.8l-34.133 76.8 4.693 59.733c2.048 45.739 29.44 68.267 63.573 76.8-12.971-16.128-17.067-29.525-25.6-51.2-10.24-25.6-8.533-162.133-8.533-162.133z" fill="#f5c4b0"/><path d="M139.136 465.579A102.894 102.894 0 0 0 127.957 512h57.003c-29.696-12.459-41.387-31.573-45.824-46.421z" fill="#ed7bb2"/><circle cx="307.157" cy="162.133" r="17.067"/><path d="M253.261 221.431l-25.6-8.533a8.53 8.53 0 0 1-4.394-12.826l17.067-25.6 14.199 9.463-10.871 16.307 15.002 5.001-5.403 16.188zM85.291 512H68.224V403.627c-.23-30.251 22.281-55.927 52.369-59.665l76.8-9.557c4.275-.538 7.484-4.207 7.458-8.533v-35.738h17.067v35.669c.102 12.919-9.532 23.927-22.4 25.532l-76.809 9.557c-21.495 2.671-37.572 21.018-37.41 42.667V512h-.008zm358.485 0h-17.067V404.053c.171-21.717-15.915-40.055-37.402-42.735l-76.8-9.549c-12.885-1.621-22.519-12.629-22.417-25.6v-36.036h17.067v36.096c-.034 4.395 3.174 8.055 7.467 8.602l76.783 9.549c30.089 3.738 52.599 29.423 52.369 59.733V512zm-85.419-307.2h-8.533v-17.067h8.533c9.412 0 17.067-7.654 17.067-17.067 0-9.412-7.654-17.067-17.067-17.067h-8.533v-17.067h8.533c18.825 0 34.133 15.309 34.133 34.133S377.182 204.8 358.357 204.8z"/><path d="M256 409.6h-.094a85.987 85.987 0 0 1-79.13-52.19l-5.461-12.706 15.684-6.733 5.461 12.715a68.968 68.968 0 0 0 63.454 41.847h.077a68.966 68.966 0 0 0 63.471-41.839l5.461-12.723 15.684 6.733-5.461 12.715A86.005 86.005 0 0 1 256 409.6zm-10.598-162.133h-6.511V230.4h6.511a72.619 72.619 0 0 0 32.341-7.637l7.637 15.266c-12.347 6.178-26.171 9.438-39.978 9.438z"/><path d="M154.325 353.4c-45.047-99.106-33.562-230.81-17.399-279.296C152.704 25.643 193.869 0 255.957 0c89.719 0 128 45.935 128 153.6H366.89c0-98.253-31.104-136.533-110.933-136.533-54.758 0-89.344 20.983-102.818 62.379-15.445 46.327-26.368 172.1 16.717 266.889l-15.531 7.065z"/><path d="M255.957 307.2c-52.471 0-95.386-41.071-97.698-93.491l-4.676-59.435a8.618 8.618 0 0 1 .708-4.139l34.133-76.8a8.528 8.528 0 0 1 6.238-4.924 8.511 8.511 0 0 1 7.595 2.355c.401.393 42.812 41.37 149.487 65.98a8.537 8.537 0 0 1 6.596 8.9l-4.693 68.267c-2.296 52.225-45.21 93.287-97.69 93.287zm-85.188-152.115l4.531 57.574c1.92 43.571 37.342 77.474 80.657 77.474s78.746-33.903 80.649-77.175l4.207-61.261c-80.179-19.507-123.861-47.539-141.406-61.047l-28.638 64.435z"/><circle cx="204.757" cy="162.133" r="17.067"/><path d="M366.566 352.205l-16.418-4.685c16.538-57.882 16.742-158.78 16.742-159.795h17.067c0 4.241-.196 104.294-17.391 164.48zM119.424 512c0-23.654 5.589-47.343 16.179-68.497l.887-1.783v-23.586h17.067v25.6a8.546 8.546 0 0 1-.896 3.814l-1.792 3.584c-9.412 18.799-14.379 39.851-14.379 60.868h-17.066z"/><path d="M76.757 435.2h68.267v17.067H76.757zm290.134 0h68.267v17.067h-68.267z"/><path d="M392.491 512h-17.067c.009-21.018-4.958-42.061-14.379-60.868l-1.792-3.584a8.577 8.577 0 0 1-.896-3.814v-25.6h17.067v23.586l.887 1.783c10.599 21.163 16.188 44.851 16.18 68.497z"/></svg>