<svg xmlns="http://www.w3.org/2000/svg" viewBox="0 0 512.005 512.005"><path fill="#fedac6" d="M307.201 298.679H204.804v213.326h102.397V341.344z"/><path d="M136.028 350.474c-33.902 4.531-59.219 33.458-59.219 67.667v93.863h127.996v-170.66l-68.777 9.13zm299.169 67.668c0-34.209-25.318-63.136-59.219-67.667l-68.776-9.13v170.661h127.996v-93.864z" fill="#de4c3c"/><path d="M204.804 381.791v130.214h102.397V381.791c-29.286 25.735-73.111 25.735-102.397 0z" fill="#ebebeb"/><path d="M307.201 298.679H204.804v83.112c29.285 25.727 73.111 25.727 102.397 0v-83.112z" fill="#fedac6"/><path d="M238.936 399.113a77.412 77.412 0 0 1-34.132-17.066v129.958h34.132V399.113z" fill="#dbdbdb"/><path d="M307.201 332.811v-34.132H204.804v34.132c38.399 17.066 63.998 17.066 102.397 0z" fill="#f5c4b0"/><path d="M258.562 17.088c-42.418-.009-79.852 27.698-92.242 68.264h184.314c-12.347-40.523-49.705-68.221-92.072-68.264z" fill="#a15d30"/><path d="M166.32 85.353a94.731 94.731 0 0 0-3.157 41.727l1.28 9.472v85.33c0 51.838 42.025 93.864 93.864 93.864s93.864-42.025 93.864-93.864v-85.33l.683-2.901a94.842 94.842 0 0 0-2.219-48.297l-184.315-.001z" fill="#fedac6"/><path d="M196.271 85.353v8.533H348.33c-15.505-50.9-69.331-79.588-120.231-64.083a96.335 96.335 0 0 0-64.083 64.083h32.255v-8.533zm0 8.533h-32.255a95.902 95.902 0 0 0-3.243 41.727l1.365 9.472c.001-.001 34.133-17.067 34.133-51.199zm152.059 0h-32.596c0 34.132 34.132 51.198 34.132 51.198l.597-2.901a95.968 95.968 0 0 0-2.133-48.297z" fill="#a15d30"/><path d="M196.271 218.809V93.886c0 34.132-34.132 51.198-34.132 51.198v85.33c-.009 41.59 27.357 78.231 67.24 90.024l-21.247-46.846a132.17 132.17 0 0 1-11.861-54.783z" fill="#f5c4b0"/><path d="M358.399 145.084h-8.533v51.198h8.533c14.139 0 25.599-11.46 25.599-25.599s-11.46-25.599-25.599-25.599z" fill="#fedac6"/><path d="M128.007 170.683c0 14.139 11.46 25.599 25.599 25.599h8.533v-51.198h-8.533c-14.139 0-25.599 11.46-25.599 25.599z" fill="#f5c4b0"/><path d="M247.461 25.604h17.066v68.264h-17.066zm-17.507 65.603l-16.19 5.397L196.698 45.4l16.19-5.396zm93.404-44.702l-25.597 51.194-15.263-7.632 25.596-51.194z" fill="#91542b"/><path d="M321.024 219.833a8.525 8.525 0 0 1-11.451 3.806 8.575 8.575 0 0 1-2.372-1.758 58.937 58.937 0 0 0-41.641-17.066h-18.687a60.497 60.497 0 0 0-42.665 17.663c-3.319 3.345-8.721 3.371-12.066.06a8.282 8.282 0 0 1-1.416-1.852l-28.586-51.625v61.353c0 51.838 42.025 93.864 93.864 93.864s93.864-42.025 93.864-93.864V162.15l-28.844 57.683z" fill="#a15d30"/><path d="M196.271 224.697a8.513 8.513 0 0 1-5.546-4.011l-28.586-51.625v61.353c.034 36.095 20.769 68.973 53.332 84.563a155.929 155.929 0 0 1-19.199-74.749v-15.531zM315.734 8.555a34.127 34.127 0 0 0-29.524 17.066l52.137 42.665c14.139-12.467 15.487-34.038 3.021-48.178a34.13 34.13 0 0 0-25.634-11.553z" fill="#8f4f24"/><g fill="#ad3228"><path d="M153.597 349.86h51.198v162.128h-51.198zm-42.656 162.145H76.808V392.542l34.133-34.132z"/><path d="M110.932 401.058h42.665v42.665h-42.665z"/></g><path d="M153.597 401.058h42.665v42.665h-42.665zm-76.797 0h34.132v42.665H76.8zm77.309 85.331h42.665v25.599h-42.665z" fill="#7d241d"/><path d="M307.192 349.86h51.198v162.128h-51.198zm93.872 162.145h34.133V392.542l-34.133-34.132zm-42.673-110.947h42.665v42.665h-42.665z" fill="#ad3228"/><path d="M315.725 401.058h42.665v42.665h-42.665zm85.331 0h34.132v42.665h-34.132zm-85.834 85.331h42.665v25.599h-42.665zm-238.422 0h34.132v25.599H76.8z" fill="#7d241d"/><path fill="#ad3228" d="M110.932 486.389h42.665v25.599h-42.665z"/><path fill="#7d241d" d="M401.056 486.389h34.132v25.599h-34.132z"/><path fill="#ad3228" d="M358.391 486.389h42.665v25.599h-42.665z"/><path d="M165.953 152.721l-7.637-15.266 3.814 7.637-3.84-7.62c.299-.154 29.439-15.283 29.439-43.578h17.066c.009 38.954-37.255 58.033-38.842 58.827zm180.099 0c-1.587-.794-38.851-19.873-38.851-58.835h17.066c0 28.296 29.14 43.425 29.439 43.578l-7.654 15.257z"/><path d="M170.663 85.336h170.661v17.066H170.663zm173.341-10.658l-11.298-12.783a25.757 25.757 0 0 0 5.231-6.408c7.057-12.219 2.859-27.912-9.369-34.968-12.228-7.048-27.912-2.859-34.968 9.369l-14.779-8.533c5.7-9.873 14.899-16.93 25.906-19.882 11.016-2.952 22.519-1.434 32.374 4.267 20.377 11.767 27.374 37.912 15.616 58.289a42.476 42.476 0 0 1-8.713 10.649z"/><circle cx="204.796" cy="162.133" r="17.066"/><circle cx="307.192" cy="162.133" r="17.066"/><path d="M264.536 213.348h-25.599a8.511 8.511 0 0 1-6.92-3.55 8.555 8.555 0 0 1-1.178-7.688l17.066-51.198 16.187 5.401-13.329 39.969h13.764v17.066h.009zm-24.14 42.666h-1.451v-17.066h1.451c13.286-.009 25.778-5.18 35.182-14.574l12.066 12.074c-12.63 12.611-29.406 19.557-47.248 19.566zm118.003-51.199h-8.533v-17.066h8.533c9.412 0 17.066-7.654 17.066-17.066s-7.654-17.066-17.066-17.066h-8.533v-17.066h8.533c18.824 0 34.132 15.308 34.132 34.132s-15.308 34.132-34.132 34.132zm-196.26 0h-8.533c-18.824 0-34.132-15.308-34.132-34.132s15.308-34.132 34.132-34.132h8.533v17.066h-8.533c-9.412 0-17.066 7.654-17.066 17.066s7.654 17.066 17.066 17.066h8.533v17.066z"/><path d="M198.166 233.555c-1.519 0-3.046-.205-4.557-.623a16.988 16.988 0 0 1-10.308-8.03l-28.577-49.978 14.813-8.465 28.586 50.004c13.064-12.996 30.352-20.155 48.732-20.172h18.858c17.911 0 34.764 6.937 47.478 19.541l29.038-57.513 15.231 7.688-29.012 57.513a16.989 16.989 0 0 1-3.166 4.386 16.961 16.961 0 0 1-12.049 5.009h-.026a16.956 16.956 0 0 1-12.049-4.975c-9.472-9.386-22.075-14.574-35.446-14.574h-18.85c-13.832.009-26.845 5.401-36.641 15.172a17.285 17.285 0 0 1-3.644 2.79c-2.609 1.467-5.493 2.227-8.411 2.227z"/><path d="M256.003 332.811c-56.463 0-102.397-45.933-102.397-102.397v-84.716l-1.28-8.866v-.017a104.466 104.466 0 0 1-1.041-14.506c-.145-57.879 46.821-105.076 104.7-105.221 7.287-.034 14.975.759 22.305 2.338 56.54 12.134 92.652 68.008 80.526 124.548l-.41 1.98v84.452c-.007 56.472-45.94 102.405-102.403 102.405zm-86.782-198.393l1.365 9.446c.06.401.085.811.085 1.22v85.33c0 47.051 38.279 85.33 85.33 85.33s85.331-38.271 85.331-85.33v-85.33c0-.58.06-1.16.179-1.732l.597-2.901c10.171-47.401-20.07-94.179-67.403-104.351-6.127-1.314-12.586-1.997-18.67-1.954-48.468.119-87.797 39.645-87.677 88.104.002 4.061.292 8.149.863 12.168z"/><path d="M85.342 512.005H68.275v-93.863c0-38.313 28.637-71.038 66.626-76.123l61.37-8.149v-26.657h17.066v34.132a8.53 8.53 0 0 1-7.407 8.456l-68.776 9.13c-29.533 3.951-51.813 29.396-51.813 59.202l.001 93.872zm358.388 0h-17.066v-93.863c0-29.806-22.271-55.26-51.821-59.202l-68.768-9.13a8.53 8.53 0 0 1-7.407-8.456V307.22h17.066v26.657l61.361 8.149c37.989 5.077 66.635 37.81 66.635 76.123v93.856zM256.037 409.608h-.077a86.023 86.023 0 0 1-56.787-21.409l11.255-12.817a68.976 68.976 0 0 0 45.532 17.16h.06a68.967 68.967 0 0 0 45.541-17.16l11.264 12.817a85.99 85.99 0 0 1-56.788 21.409z"/><path d="M196.263 341.327h17.066v170.661h-17.066zm102.396 0h17.066v170.661h-17.066z"/><path d="M204.804 443.741h-51.198a8.564 8.564 0 0 1-6.784-3.353 8.543 8.543 0 0 1-1.451-7.424L170.97 339.1l16.469 4.48-22.664 83.086h40.029v17.075zm153.595 0h-51.198v-17.066h40.02l-22.655-83.086 16.469-4.48 25.599 93.864c.7 2.56.171 5.308-1.451 7.424a8.57 8.57 0 0 1-6.784 3.344zm-183.46 42.665c-7.057 0-12.8-5.743-12.8-12.8s5.743-12.8 12.8-12.8 12.8 5.743 12.8 12.8c-.001 7.057-5.744 12.8-12.8 12.8zm0-17.066a4.274 4.274 0 0 0-4.267 4.267 4.274 4.274 0 0 0 4.267 4.267 4.274 4.274 0 0 0 4.267-4.267 4.275 4.275 0 0 0-4.267-4.267z"/></svg>